HIERARCHY
ROOT Hips
{
	OFFSET 42.321804 102.231346 -73.648331
	CHANNELS 6 Xposition Yposition Zposition Xrotation Yrotation Zrotation
	JOINT Chest
	{
		OFFSET -0.515270 13.473785 2.084641
		CHANNELS 3 Xrotation Yrotation Zrotation
		JOINT Chest2
		{
			OFFSET -5.709549 19.350777 7.212158
			CHANNELS 3 Xrotation Yrotation Zrotation
			JOINT Chest3
			{
				OFFSET -3.644859 14.231522 2.645538
				CHANNELS 3 Xrotation Yrotation Zrotation
				JOINT Neck
				{
					OFFSET -3.956074 16.227875 4.429623
					CHANNELS 3 Xrotation Yrotation Zrotation
					JOINT Head
					{
						OFFSET -5.743181 8.094711 3.364399
						CHANNELS 3 Xrotation Yrotation Zrotation
						End Site
						{
							OFFSET -5.716040 8.136032 3.310524
						}
					}
				}
				JOINT LeftCollar
				{
					OFFSET 0.706612 12.416260 6.865963
					CHANNELS 3 Xrotation Yrotation Zrotation
					JOINT LeftUpArm
					{
						OFFSET 16.641762 3.337112 -4.518276
						CHANNELS 3 Xrotation Yrotation Zrotation
						JOINT LeftLowArm
						{
							OFFSET 27.376114 -19.749588 -0.480190
							CHANNELS 3 Xrotation Yrotation Zrotation
							JOINT LeftHand
							{
								OFFSET 24.445541 -15.702179 7.536842
								CHANNELS 3 Xrotation Yrotation Zrotation
								End Site
								{
									OFFSET 5.342712 -3.431816 1.647213
								}
							}
						}
					}
				}
				JOINT RightCollar
				{
					OFFSET -7.430777 10.828262 5.416744
					CHANNELS 3 Xrotation Yrotation Zrotation
					JOINT RightUpArm
					{
						OFFSET -14.271990 -2.934387 -9.807949
						CHANNELS 3 Xrotation Yrotation Zrotation
						JOINT RightLowArm
						{
							OFFSET -29.733982 -15.912750 -1.551941
							CHANNELS 3 Xrotation Yrotation Zrotation
							JOINT RightHand
							{
								OFFSET -26.258068 -13.488617 5.433720
								CHANNELS 3 Xrotation Yrotation Zrotation
								End Site
								{
									OFFSET -5.738976 -2.948059 1.187584
								}
							}
						}
					}
				}
			}
		}
	}
	JOINT LeftUpLeg
	{
		OFFSET 9.680733 -0.030525 2.588753
		CHANNELS 3 Xrotation Yrotation Zrotation
		JOINT LeftLowLeg
		{
			OFFSET 7.443546 -46.450603 5.560974
			CHANNELS 3 Xrotation Yrotation Zrotation
			JOINT LeftFoot
			{
				OFFSET 5.882027 -42.572979 -12.389954
				CHANNELS 3 Xrotation Yrotation Zrotation
				JOINT LeftToe
				{
					OFFSET 2.043076 -16.606674 16.721355
					CHANNELS 3 Xrotation Yrotation Zrotation
					End Site
					{
						OFFSET 0.558746 -2.269239 23.539272
					}
				}
			}
		}
	}
	JOINT RightUpLeg
	{
		OFFSET -9.680729 0.030327 -2.588783
		CHANNELS 3 Xrotation Yrotation Zrotation
		JOINT RightLowLeg
		{
			OFFSET -23.085575 -41.216297 3.504799
			CHANNELS 3 Xrotation Yrotation Zrotation
			JOINT RightFoot
			{
				OFFSET -9.547413 -41.927795 -12.307938
				CHANNELS 3 Xrotation Yrotation Zrotation
				JOINT RightToe
				{
					OFFSET -10.567778 -19.516459 8.184525
					CHANNELS 3 Xrotation Yrotation Zrotation
					End Site
					{
						OFFSET -13.422228 -7.319673 18.050549
					}
				}
			}
		}
	}
}
MOTION
Frames: 16
Frame Time: 0.033333
-0.161503 106.130577 -1.111801 -7.395238 14.971449 0.179411 -16.368856 1.775647 -15.046856 4.272305 3.318928 0.997881 -2.779875 -9.217965 -1.464319 -4.870612 26.269758 -8.306628 -0.000000 -0.000003 0.000002 1.877202 4.992835 6.509166 -5.289446 -15.693473 39.366410 7.905498 13.296618 -4.201968 0.000003 0.000001 0.000002 6.516379 -4.280855 -5.351642 -1.194383 -2.241420 -10.953768 13.010494 -7.848964 1.332214 0.000001 0.000001 0.000000 14.057449 -1.459050 0.102302 -15.930761 4.368180 1.587910 3.327290 -19.073720 -3.594444 -0.000000 0.000000 0.000000 14.986497 1.400836 24.506176 -13.340205 4.706843 -11.210407 -11.548695 21.470314 -6.544074 -0.000003 -0.000005 -0.000001 
-5.405029 92.475967 -1.108681 -0.557325 6.008353 -13.156280 -1.425840 4.914339 -15.774839 1.476396 -0.834180 2.154730 0.862756 -6.016899 -2.103944 -0.536191 24.871803 -11.240578 -0.000001 -0.000003 -0.000002 1.574283 -3.730094 2.905275 -0.085514 -24.477043 24.644339 -5.333530 -18.480725 56.259356 0.000001 0.000002 -0.000002 -0.755161 -13.060957 9.952239 25.346941 -30.039698 42.513686 35.380998 -11.983915 75.092718 -0.000000 -0.000002 0.000005 -10.287326 -2.939192 13.513819 56.641847 2.274952 -0.324851 4.361149 -13.480345 -7.282617 0.000005 0.000001 0.000001 -12.627996 -1.560829 39.052679 15.492401 -4.025524 15.298237 -26.211817 1.201485 -26.237999 -0.000003 -0.000004 -0.000002 
-5.401207 92.431305 -1.097061 -0.814058 5.866915 -13.395960 -1.384949 4.933166 -15.851008 1.491293 -0.856679 2.205335 0.892795 -6.097428 -2.041378 -0.281524 24.915439 -11.200760 -0.000003 -0.000002 -0.000007 1.558128 -3.560789 2.746682 -0.046030 -25.074425 24.746180 -5.215903 -18.066479 55.734945 -0.000002 -0.000001 -0.000004 -0.720062 -12.766881 10.211114 25.132825 -29.868629 42.613414 35.508842 -11.997425 75.175576 -0.000000 -0.000001 0.000002 -10.014878 -2.913891 13.798319 57.081837 2.109499 -0.590515 4.662258 -12.938052 -6.958998 0.000001 0.000000 0.000001 -12.392476 -1.573830 39.401510 15.488468 -3.968469 15.284080 -26.693663 1.218898 -26.780046 -0.000004 -0.000001 -0.000000 
-5.402523 92.380524 -1.096169 -0.853004 6.007630 -13.486141 -1.396523 4.928295 -15.873652 1.421008 -0.881127 2.199007 0.904940 -6.228890 -2.087431 -0.139165 24.816205 -11.070617 -0.000000 -0.000002 0.000003 1.466366 -3.336102 2.802095 0.056866 -24.898473 24.676575 -5.118082 -18.243256 55.639062 0.000003 -0.000007 0.000001 -0.703370 -12.862023 10.096838 25.050205 -29.661080 42.819378 35.463961 -12.264296 74.290561 0.000002 -0.000001 -0.000000 -10.080700 -2.947137 13.874627 57.326884 2.136791 -0.382796 4.565046 -12.872978 -6.957579 -0.000005 -0.000000 -0.000001 -12.653941 -1.562482 39.363476 15.415793 -3.893973 15.620118 -26.763410 0.812717 -27.236846 -0.000001 0.000003 -0.000001 
-5.412872 92.329453 -1.096359 -0.915746 6.075403 -13.513279 -1.090889 4.931087 -15.987315 1.652382 -0.635773 2.121109 0.638094 -6.248733 -1.938139 -0.294420 24.592525 -10.795544 0.000001 -0.000002 0.000003 1.771307 -3.333259 3.049145 0.276833 -24.772425 24.529793 -5.015109 -18.200397 56.019248 0.000003 -0.000002 0.000003 -0.475931 -12.829489 10.189076 25.065433 -29.092200 43.118096 33.060633 -11.301191 73.276011 0.000001 0.000001 0.000006 -10.224715 -2.954094 13.894819 56.834182 2.028697 -0.484851 4.024349 -13.215967 -7.190856 0.000002 0.000001 0.000000 -13.081547 -1.547531 39.083879 15.191864 -3.881649 16.233000 -27.019322 0.562407 -27.965803 0.000000 -0.000004 -0.000002 
-5.426899 92.264511 -1.095886 -0.772141 6.299244 -13.336017 -1.023169 4.931235 -16.068553 1.372410 -0.484262 1.852704 0.836232 -6.514038 -1.887847 -0.887108 24.254345 -10.627271 -0.000003 -0.000002 0.000004 2.148783 -3.560918 3.184003 0.462875 -25.028163 24.321383 -4.583709 -16.973440 56.953444 0.000003 0.000000 0.000003 -0.261214 -12.710223 10.260938 25.034872 -28.728968 43.303915 32.478755 -11.451481 71.470942 0.000004 -0.000001 0.000002 -10.015244 -2.843843 13.563635 56.049366 2.069559 -0.074520 3.748952 -13.733656 -7.598317 0.000003 0.000001 0.000000 -13.472293 -1.539479 38.675270 15.340087 -3.787521 16.849237 -27.375798 0.091211 -28.802064 -0.000001 -0.000001 -0.000001 
-5.440186 92.209885 -1.094604 -0.189513 6.018337 -13.355397 -1.593727 4.956611 -16.141433 1.316526 -0.436681 1.782023 1.240007 -6.716193 -1.800504 -1.272443 24.209404 -10.768602 -0.000003 -0.000002 -0.000003 2.163206 -3.334332 3.098052 0.708771 -25.687841 24.575285 -4.150384 -15.916591 57.059185 -0.000000 0.000002 0.000003 -0.133072 -12.526876 10.653794 24.772109 -28.233154 43.130476 31.095129 -11.090223 69.463734 -0.000001 0.000005 0.000001 -10.434392 -2.923055 13.587251 55.741577 2.070075 -0.281977 3.753922 -13.811752 -7.675049 0.000002 -0.000000 -0.000001 -13.926913 -1.559800 38.632650 15.173212 -3.815192 16.773953 -27.521860 0.159929 -28.920240 0.000001 0.000001 0.000000 
-5.466385 92.153534 -1.099976 -0.896110 6.001143 -13.351813 -1.389110 4.980413 -16.234791 1.512687 -0.210610 1.696168 1.069015 -6.661344 -1.551485 -0.998710 24.272558 -10.657317 -0.000004 -0.000003 0.000003 2.129893 -2.942579 3.104849 1.046800 -25.049171 24.315364 -3.626011 -16.014193 57.867111 0.000002 0.000000 -0.000000 0.094399 -12.617718 10.814204 24.824336 -27.917877 42.752428 28.968222 -9.671278 68.305696 -0.000001 -0.000001 0.000002 -9.934223 -2.775406 13.695532 55.882709 2.081491 -0.270269 4.263130 -13.853080 -7.675090 0.000000 0.000001 -0.000000 -13.048294 -1.543135 38.788487 14.902481 -3.817444 16.821112 -27.587882 0.018459 -29.114272 -0.000002 -0.000001 -0.000000 
-5.502090 92.088928 -1.109207 -0.986332 6.345492 -13.284612 -2.012947 4.986103 -16.238403 1.991611 -0.161858 1.881278 0.894506 -6.730138 -1.697265 -0.784429 24.153557 -10.547167 -0.000001 0.000002 0.000003 2.149001 -2.850520 2.988538 1.196672 -24.720606 24.245303 -3.522386 -16.018315 58.003291 0.000004 -0.000002 0.000002 0.178333 -13.202359 10.934388 24.807959 -27.828492 42.398570 27.598945 -9.362507 66.139051 -0.000000 0.000001 -0.000001 -10.008723 -2.800692 13.583734 56.182756 2.158060 -0.113684 4.058838 -13.426447 -7.424822 0.000003 0.000000 -0.000000 -12.996019 -1.490682 38.781025 15.195402 -3.837396 16.949318 -27.714927 0.332655 -29.094253 -0.000000 -0.000001 -0.000000 
-5.540180 92.024147 -1.119217 -1.012048 6.900638 -13.154617 -1.990549 4.970782 -16.170206 2.285646 -0.087168 1.978955 0.575346 -6.978417 -1.810777 -0.847618 23.978076 -10.498376 -0.000005 0.000001 0.000003 1.988497 -2.798788 2.946315 0.994616 -24.709263 23.975443 -3.846620 -16.912301 57.384524 0.000002 -0.000005 -0.000001 0.062465 -12.957605 11.068966 24.738790 -27.924074 42.494428 26.229788 -9.220836 64.813755 -0.000000 0.000002 0.000002 -10.082146 -2.881171 13.371007 55.896919 2.287173 0.139293 4.045617 -13.531107 -7.447848 -0.000003 0.000001 0.000000 -13.205320 -1.416790 38.479244 15.016051 -3.801461 17.410017 -27.780145 -0.334810 -29.661886 -0.000003 -0.000001 -0.000001 
-5.593609 91.960014 -1.130592 -1.007468 7.159929 -12.898605 -2.443691 4.972383 -16.142360 3.032777 0.079092 2.135945 -0.100639 -7.264857 -2.105998 -0.733657 24.101064 -10.570386 -0.000003 0.000001 0.000002 1.977916 -2.951749 2.945448 0.813612 -24.346686 23.924462 -4.019081 -17.595406 56.601395 0.000003 -0.000001 -0.000002 -0.046661 -12.753034 10.880549 24.982657 -28.455932 42.327557 25.246821 -9.410988 62.511455 -0.000006 0.000003 0.000000 -10.032298 -2.798419 13.071570 56.121397 2.585887 0.765021 4.571808 -14.144507 -7.730312 -0.000001 0.000000 0.000001 -12.915596 -1.431082 38.283497 14.903123 -3.891801 17.491732 -27.942674 -0.702576 -30.237657 -0.000000 -0.000001 -0.000000 
-5.667152 91.928589 -1.156563 -1.866982 6.975606 -12.537756 -1.864372 5.098815 -16.529645 2.418927 -0.074748 1.995761 0.274036 -7.047269 -1.882643 -0.556842 24.267845 -10.726489 -0.000005 -0.000001 -0.000001 1.704170 -2.775026 2.811901 0.603037 -25.594566 24.023804 -4.313422 -17.890279 54.763729 0.000005 0.000001 0.000005 -0.210781 -12.579592 10.895281 24.980719 -28.774928 42.246998 24.135862 -9.411056 60.504377 -0.000003 0.000006 -0.000001 -9.264354 -2.695891 13.080658 56.467305 2.450013 0.357170 5.375955 -13.876600 -7.443942 0.000001 -0.000001 -0.000000 -12.230649 -1.346735 38.275752 15.055987 -3.934023 16.917549 -27.184100 -0.241950 -28.926326 0.000001 0.000006 0.000001 
-5.742329 91.921509 -1.178322 -2.651455 6.911090 -12.200085 -1.954356 5.174449 -16.656649 2.625829 0.065561 1.903320 0.051927 -6.996193 -1.858549 -0.143507 24.369779 -10.760277 -0.000003 -0.000005 0.000003 1.285899 -2.705408 2.404806 0.111131 -24.982267 23.917779 -5.182700 -19.601263 53.086095 -0.000001 -0.000002 -0.000004 -0.588351 -12.757319 10.416505 25.273141 -29.606094 42.346544 23.185130 -9.843462 58.679371 -0.000001 -0.000001 0.000002 -8.468666 -2.512639 12.997917 56.311898 2.585593 0.129170 5.394819 -13.488624 -7.148422 -0.000001 0.000001 0.000000 -10.441520 -1.327304 38.556384 14.792136 -4.110468 16.075911 -26.650995 0.371937 -27.589728 0.000000 0.000001 -0.000001 
-5.820782 92.020325 -1.196106 -2.962010 7.012007 -11.598319 -2.185836 5.220362 -16.682677 2.506854 0.248440 1.652745 0.615540 -7.052382 -1.740615 0.423376 24.751397 -10.947441 -0.000003 -0.000001 0.000001 1.259083 -2.944737 1.939757 -0.299046 -24.139656 23.815922 -6.069842 -20.924225 51.942182 0.000001 -0.000003 0.000003 -0.790181 -13.492315 10.028458 25.837504 -30.506613 42.597325 21.035637 -10.150785 53.984439 0.000001 0.000000 0.000000 -7.381322 -2.207578 12.497877 54.322888 2.544496 -0.005827 5.860267 -13.320961 -6.959755 -0.000001 0.000000 -0.000001 -9.392108 -1.300765 38.446940 13.784465 -4.065358 15.168817 -25.675810 0.312607 -26.478405 -0.000002 -0.000001 -0.000000 
-5.898403 92.270805 -1.223251 -2.987475 6.966875 -10.876238 -2.053939 5.197237 -16.505772 1.947421 0.368604 1.245720 1.505352 -7.140814 -1.581136 0.191918 25.090295 -11.380198 -0.000003 0.000000 0.000005 0.606146 -2.680875 1.046593 -1.162523 -22.267192 23.473052 -7.498996 -23.188509 50.702752 -0.000003 0.000000 0.000003 -1.222848 -14.303098 9.975795 26.485693 -32.357529 42.664370 16.545158 -9.419566 46.594085 -0.000001 0.000002 0.000000 -6.340448 -1.996081 11.852122 51.766287 2.354839 -0.567792 6.194943 -13.129204 -6.800555 -0.000001 -0.000001 -0.000001 -8.665261 -1.250837 38.225704 12.007347 -3.711701 13.506835 -23.975347 -0.294516 -24.456998 -0.000000 0.000003 -0.000001 
-5.971462 92.598503 -1.245262 -3.198624 6.920758 -10.251186 -1.576699 5.158426 -16.378263 1.230717 0.466232 0.797437 2.273018 -7.475507 -1.496259 0.057372 25.202222 -11.731146 -0.000000 0.000003 -0.000001 0.300780 -2.301101 0.389808 -1.559870 -22.302485 22.976049 -8.144645 -23.151403 50.431979 -0.000000 0.000000 -0.000000 -1.360559 -14.696371 10.022438 27.048171 -33.140945 43.045853 12.392691 -7.846696 39.955845 0.000003 0.000002 0.000000 -4.938482 -1.716499 11.191985 49.210646 1.859946 -1.071403 6.836789 -12.284953 -6.367053 0.000003 -0.000001 -0.000000 -8.296330 -1.145808 37.997090 10.815255 -3.220907 11.934425 -22.596610 -0.484219 -22.786881 -0.000003 0.000003 -0.000001 
